<svg width="196" height="196" viewBox="0 0 196 196" fill="none" xmlns="http://www.w3.org/2000/svg">
<path d="M186.309 129.316C185.009 132.604 183.509 135.784 181.856 138.877L181.922 138.855L191.667 143.973C181.195 163.442 164.417 178.84 144.002 187.703C123.587 196.567 100.747 198.396 79.164 192.865L81.9418 182.281C78.9435 181.497 75.9673 180.625 73.0572 179.536C60.3584 174.832 48.9825 167.297 39.7451 157.584C38.5987 156.386 37.4964 155.123 36.4161 153.86L36.0854 153.468C35.2697 152.488 34.454 151.464 33.6603 150.441L24.8417 157.018C13.0028 141.533 6.10232 122.913 5 103.531L16.0011 102.921C15.957 102.529 15.957 102.115 15.957 101.723C15.957 101.472 15.946 101.222 15.935 100.972C15.924 100.721 15.913 100.471 15.913 100.22V96.2566C15.935 95.1241 15.9791 94.0134 16.0452 92.9027C16.0673 92.7067 16.0673 92.5107 16.0673 92.3147C16.1555 91.008 16.2657 89.7231 16.42 88.4164C16.4421 88.2204 16.4696 88.0298 16.4972 87.8393C16.5247 87.6487 16.5523 87.4582 16.5743 87.2622C16.6846 86.3475 16.7948 85.4546 16.9491 84.5399C17.0153 84.0608 17.1034 83.5817 17.1916 83.1026C17.2366 82.8616 17.2797 82.6222 17.3225 82.3843C17.4268 81.8055 17.5296 81.2344 17.6546 80.6634C17.7294 80.2387 17.82 79.8297 17.913 79.4098C17.9297 79.3344 17.9465 79.2587 17.9633 79.1825C18.1396 78.3767 18.3381 77.5709 18.5365 76.7651C18.6026 76.4602 18.6688 76.1771 18.7349 75.8939L8.06445 73.1281C10.8202 62.7617 15.2736 52.8961 21.2702 43.9453L30.4856 49.9561L30.9486 49.2374C30.9596 49.2156 30.9761 49.1938 30.9927 49.1721C31.0092 49.1503 31.0257 49.1285 31.0368 49.1067C31.7423 48.0614 32.4698 47.0596 33.2194 46.0578C33.3186 45.9271 33.4233 45.7964 33.528 45.6658C33.6327 45.5351 33.7374 45.4044 33.8367 45.2738C34.4319 44.4897 35.0492 43.7275 35.6665 42.9653C35.9531 42.6168 36.2618 42.2466 36.5704 41.8981C36.7712 41.6693 36.9693 41.4404 37.1666 41.2125C37.5325 40.7897 37.8956 40.3702 38.268 39.9599C38.4333 39.7748 38.6042 39.5951 38.775 39.4154C38.9459 39.2358 39.1168 39.0561 39.2821 38.871C39.855 38.2615 40.45 37.652 41.045 37.0424C41.2434 36.8247 41.4427 36.606 41.6631 36.41C48.0786 30.0943 55.4201 24.7587 63.489 20.6426L60.4466 14.8278C66.2669 11.866 72.3517 9.53569 78.5908 7.81521L77.4003 3.59024C102.754 -3.37879 129.871 -0.112063 152.821 12.6064L150.638 16.4176C163.469 23.5609 174.537 33.6006 182.848 45.8835L176.896 49.8254L174.933 51.1321C164.528 35.7785 149.316 24.2142 131.612 18.247C113.909 12.258 94.7067 12.2144 76.9814 18.0728C64.3929 22.2324 53.039 29.2232 43.7575 38.3918L48.7841 43.3573C34.4319 57.5349 26.2307 76.678 25.9 96.7139C25.5693 116.772 33.1532 136.154 47.0424 150.767L43.1843 154.339C51.9147 163.551 62.6954 170.673 74.6886 175.116C77.8853 176.292 81.1482 177.272 84.4331 178.056C84.6315 178.099 84.8299 178.148 85.0283 178.197C85.2267 178.246 85.4252 178.295 85.6236 178.339C87.1448 178.665 88.666 178.97 90.1872 179.232C90.36 179.274 90.5422 179.298 90.7215 179.322C90.8167 179.335 90.9111 179.347 91.0029 179.362C92.3477 179.558 93.6926 179.732 95.0594 179.885C95.434 179.907 95.8085 179.95 96.183 179.994C97.7042 180.146 99.2482 180.233 100.791 180.299C101.144 180.321 101.497 180.321 101.85 180.321C103.195 180.342 104.561 180.342 105.906 180.321H106.854C108.397 180.277 109.941 180.168 111.484 180.037C111.881 180.016 112.278 179.972 112.674 179.929C114.13 179.776 115.585 179.58 117.04 179.362L117.503 179.297C119.046 179.057 120.589 178.752 122.132 178.404L123.323 178.143C124.844 177.772 126.365 177.38 127.864 176.945C128.085 176.88 128.283 176.814 128.482 176.749C129.827 176.335 131.171 175.9 132.494 175.42C132.869 175.268 133.244 175.137 133.619 175.007C135.074 174.462 136.507 173.896 137.918 173.264L138.777 172.872C139.99 172.328 141.202 171.74 142.393 171.13C142.558 171.043 142.724 170.961 142.889 170.88C143.054 170.798 143.22 170.716 143.385 170.629C144.73 169.911 146.075 169.148 147.398 168.364L148.323 167.776C149.47 167.058 150.616 166.317 151.741 165.533C151.983 165.381 152.226 165.228 152.468 165.054C153.747 164.161 154.981 163.225 156.194 162.266C156.348 162.136 156.503 162.01 156.657 161.885C156.811 161.76 156.966 161.635 157.12 161.504C158.288 160.546 159.457 159.566 160.559 158.564C160.647 158.499 160.736 158.433 160.802 158.368C161.948 157.323 163.072 156.212 164.153 155.101C164.296 154.96 164.434 154.813 164.572 154.666C164.709 154.519 164.847 154.372 164.991 154.23C166.049 153.12 167.085 151.965 168.077 150.789C168.231 150.615 168.386 150.419 168.54 150.223C169.422 149.156 170.282 148.067 171.097 146.978C171.208 146.826 171.323 146.673 171.439 146.521C171.555 146.368 171.671 146.216 171.781 146.063C172.685 144.822 173.545 143.559 174.382 142.274C174.526 142.068 174.659 141.851 174.788 141.639C174.837 141.559 174.885 141.48 174.933 141.403C175.639 140.27 176.322 139.138 176.962 137.984C177.116 137.679 177.292 137.374 177.468 137.069C179.122 134.021 180.621 130.862 181.878 127.617L186.309 129.316Z" fill="currentColor"/>
<path d="M136.172 36.2576L140.256 28.5263L140.278 28.6134C152.027 34.6896 162.041 43.6186 169.398 54.5513L154.289 64.5475C152.708 62.1737 150.951 59.9523 149.063 57.8616C148.953 57.7418 148.837 57.6166 148.722 57.4914L148.621 57.3815C148.54 57.2933 148.459 57.2058 148.382 57.1211C147.833 56.5331 147.262 55.9233 146.691 55.3571L146.625 55.2917C145.373 54.0504 144.055 52.8744 142.716 51.7637C142.606 51.6766 142.496 51.584 142.386 51.4915C142.277 51.3989 142.167 51.3063 142.057 51.2192C141.42 50.6965 140.783 50.1956 140.124 49.7165C140.004 49.6297 139.889 49.5484 139.774 49.467L139.772 49.4651C139.657 49.3839 139.542 49.3022 139.422 49.2156C137.314 47.7129 135.117 46.3191 132.834 45.0778L131.977 44.6204C131.252 44.2284 130.528 43.8582 129.781 43.5097C129.726 43.488 129.666 43.4607 129.605 43.4335C129.545 43.4063 129.485 43.3791 129.43 43.3573C127.914 42.6604 126.377 42.007 124.818 41.4408C124.554 41.3319 124.269 41.223 124.005 41.1359C123.259 40.8746 122.468 40.6132 121.699 40.3737C121.414 40.2867 121.107 40.1997 120.8 40.1127C119.087 39.6118 117.329 39.1541 115.55 38.8056C110.258 37.7603 104.834 37.4118 99.4531 37.7821L99.519 38.871L99.7825 42.5733C90.2955 43.2266 81.1159 46.2538 73.1441 51.3934C70.9261 52.809 68.8178 54.3988 66.8414 56.1193L70.6845 60.4967C66.0508 64.4822 62.2076 69.2734 59.3308 74.6526L53.2257 71.4294V71.4076L51.5786 70.5365C50.9418 71.669 50.3708 72.8232 49.8218 74.021C46.4618 81.4256 44.7049 89.4618 44.639 97.5851L35.5473 97.5197C35.6131 88.1333 37.6555 78.8776 41.5425 70.3187C42.2233 68.816 42.992 67.3351 43.7826 65.876L41.828 64.8306C47.472 54.5077 55.6633 45.7747 65.6116 39.4154C70.6845 36.1705 76.1527 33.6224 81.8406 31.7713L80.479 27.6116C87.9457 25.1942 95.7637 23.9529 103.626 23.9529V32.686C107.952 32.686 112.278 33.0997 116.517 33.9491L117.373 29.6588C123.983 30.9655 130.308 33.2086 136.172 36.2576Z" fill="currentColor"/>
<path d="M64.8652 118.492C60.0558 109.541 58.5405 99.1966 60.5828 89.2658L60.6268 89.2875L64.953 90.1587C65.6997 86.5653 66.9515 83.1025 68.6644 79.8358L66.7099 78.8122C70.026 72.4965 74.9452 67.1609 80.9624 63.2843C81.6652 62.827 82.3899 62.4132 83.1146 61.9994L80.9405 58.21C90.9326 52.5912 102.704 50.8925 113.904 53.4188C125.126 55.9669 134.964 62.5439 141.53 71.9085L137.929 74.3912V74.413L131.033 79.1607C127.761 74.5001 123.347 70.7543 118.186 68.2716C113.047 65.7888 107.315 64.6781 101.606 65.0266C95.8958 65.375 90.3617 67.1826 85.5522 70.2751C82.0385 72.5401 79.0079 75.4366 76.5922 78.7904C76.4165 79.0082 76.2628 79.2478 76.1091 79.4873C75.4722 80.402 74.9013 81.3385 74.3742 82.2967C71.5193 87.5453 70.0918 93.4907 70.3773 99.5233C70.5969 104.293 71.8487 108.91 74.0228 113.091C74.4401 113.897 74.9013 114.703 75.3844 115.465C75.3878 115.472 75.3916 115.478 75.3958 115.484C75.4023 115.493 75.4096 115.501 75.4166 115.509C75.4342 115.529 75.4503 115.547 75.4503 115.574C75.9334 116.336 76.4385 117.077 76.9875 117.795C77.0314 117.817 77.0534 117.861 77.0754 117.904C77.6244 118.623 78.1954 119.32 78.8103 119.995C78.8213 120.017 78.8377 120.033 78.8542 120.049C78.8602 120.055 78.8662 120.061 78.8719 120.067C78.8819 120.078 78.8911 120.09 78.8981 120.104C79.513 120.779 80.1717 121.41 80.8305 122.042L80.9185 122.129C81.5773 122.761 82.2801 123.327 82.9828 123.893C83.0048 123.904 83.0212 123.92 83.0377 123.937C83.0542 123.953 83.0707 123.969 83.0926 123.98C83.7954 124.525 84.5201 125.047 85.2667 125.526C85.2956 125.546 85.3203 125.565 85.3426 125.582C85.3507 125.588 85.3585 125.594 85.3661 125.6C85.3705 125.603 85.3747 125.606 85.3789 125.609C85.3932 125.62 85.4068 125.629 85.4205 125.635C86.1671 126.115 86.9138 126.55 87.6824 126.964C87.7483 126.986 87.8142 127.029 87.8801 127.073C88.6267 127.487 89.3954 127.835 90.164 128.183C90.1837 128.193 90.2045 128.203 90.2259 128.213C90.2411 128.22 90.2565 128.227 90.2722 128.233C90.2836 128.239 90.2952 128.244 90.3067 128.249C90.3172 128.253 90.3277 128.258 90.3382 128.263C90.3566 128.271 90.3748 128.279 90.3926 128.287C90.4122 128.296 90.4313 128.305 90.4495 128.314C93.0409 129.425 95.764 130.209 98.5969 130.644C102.396 131.211 106.239 131.145 109.951 130.427H109.995C113.706 129.708 117.308 128.379 120.602 126.441C121.524 125.897 122.446 125.309 123.325 124.677C128.222 121.106 132.043 116.293 134.393 110.739L144.144 114.79C141.047 122.107 135.996 128.467 129.54 133.149C123.061 137.831 115.441 140.684 107.469 141.381L107.074 137.025C103.933 137.287 100.771 137.221 97.6087 136.742C94.5122 136.263 91.5036 135.414 88.6267 134.238L86.9577 138.289C77.4926 134.456 69.6746 127.443 64.8652 118.492Z" fill="currentColor"/>
<path d="M134.042 158.39C148.953 151.007 160.592 138.463 166.807 123.131L151.215 116.924C146.537 128.467 137.775 137.918 126.531 143.472C115.309 149.025 102.418 150.31 90.2959 147.087L87.441 157.628C82.961 156.43 78.5908 154.731 74.4622 152.575C73.5618 152.096 72.6833 151.595 71.8049 151.072L77.0316 142.339C77.0316 142.339 76.8998 142.252 76.8339 142.23L77.4708 141.185C68.972 136.132 62.1641 128.728 57.8598 119.886C53.5555 111.044 51.9524 101.135 53.2481 91.4L49.1633 90.8555C48.4386 96.3436 48.5704 101.854 49.5147 107.255L38.6661 109.106C39.4128 113.352 40.5767 117.512 42.1359 121.497L35.9649 123.85C42.4434 140.532 54.961 154.208 71.0802 162.223L74.0449 156.364C78.0198 158.346 82.1924 159.936 86.4747 161.069L85.9037 163.181C102.001 167.471 119.108 165.773 134.02 158.39H134.042Z" fill="currentColor"/>
<path d="M121.667 98C121.667 108.309 113.309 116.667 103 116.667C92.6907 116.667 84.3334 108.309 84.3334 98C84.3334 87.6907 92.6907 79.3333 103 79.3333C113.309 79.3333 121.667 87.6907 121.667 98ZM95.1208 98C95.1208 102.352 98.6485 105.879 103 105.879C107.352 105.879 110.879 102.352 110.879 98C110.879 93.6484 107.352 90.1208 103 90.1208C98.6485 90.1208 95.1208 93.6484 95.1208 98Z" fill="#55F89F"/>
</svg>
