<svg width="32" height="32" viewBox="0 0 32 32" fill="none" xmlns="http://www.w3.org/2000/svg">
<rect width="32" height="32" rx="8" fill="black"/>
<path d="M28.6225 20.4737C28.4367 20.9435 28.2225 21.3977 27.9863 21.8395L27.9958 21.8364L29.3879 22.5675C27.8919 25.3489 25.4951 27.5485 22.5787 28.8148C19.6623 30.081 16.3994 30.3423 13.316 29.5521L13.7129 28.0401C13.2846 27.9281 12.8594 27.8036 12.4436 27.6481C10.6295 26.9761 9.00441 25.8996 7.68477 24.512C7.521 24.3409 7.36353 24.1604 7.2092 23.98L7.16196 23.924C7.04543 23.784 6.9289 23.6378 6.81552 23.4915L5.55573 24.4311C3.86445 22.2191 2.87867 19.559 2.72119 16.7901L4.29278 16.703C4.28648 16.647 4.28648 16.5878 4.28648 16.5318C4.28648 16.4961 4.28491 16.4603 4.28333 16.4245C4.28176 16.3887 4.28018 16.3529 4.28018 16.3172V15.7509C4.28333 15.5892 4.28963 15.4305 4.29908 15.2718C4.30223 15.2438 4.30223 15.2158 4.30223 15.1878C4.31483 15.0011 4.33058 14.8176 4.35262 14.6309C4.35577 14.6029 4.35971 14.5757 4.36365 14.5485C4.36758 14.5212 4.37152 14.494 4.37467 14.466C4.39042 14.3354 4.40616 14.2078 4.42821 14.0771C4.43766 14.0087 4.45026 13.9402 4.46285 13.8718C4.46927 13.8374 4.47543 13.8032 4.48155 13.7692C4.49644 13.6865 4.51114 13.6049 4.52899 13.5233C4.53967 13.4627 4.55262 13.4042 4.56591 13.3443C4.56829 13.3335 4.57069 13.3227 4.57309 13.3118C4.59828 13.1967 4.62663 13.0815 4.65497 12.9664C4.66442 12.9229 4.67387 12.8824 4.68332 12.842L3.15897 12.4469C3.55265 10.9659 4.18885 9.55659 5.04551 8.27789L6.36199 9.13658L6.42813 9.03391C6.42971 9.0308 6.43207 9.02769 6.43443 9.02458C6.43679 9.02146 6.43915 9.01835 6.44073 9.01524C6.54151 8.86591 6.64545 8.72279 6.75253 8.57968C6.7667 8.56101 6.78166 8.54234 6.79662 8.52368C6.81158 8.50501 6.82654 8.48634 6.84071 8.46768C6.92575 8.35567 7.01394 8.24678 7.10212 8.13789C7.14306 8.08811 7.18716 8.03522 7.23125 7.98544C7.25993 7.95275 7.28823 7.92005 7.31642 7.88749C7.36869 7.8271 7.42056 7.76717 7.47376 7.70855C7.49738 7.6821 7.52179 7.65644 7.5462 7.63077C7.57061 7.6051 7.59501 7.57944 7.61864 7.55299C7.70048 7.46592 7.78548 7.37885 7.87047 7.29177C7.89882 7.26067 7.92729 7.22942 7.95878 7.20143C8.87528 6.29919 9.92406 5.53695 11.0768 4.94894L10.6421 4.11825C11.4736 3.69513 12.3429 3.36224 13.2342 3.11645L13.0641 2.51289C16.686 1.51731 20.5599 1.98399 23.8385 3.80091L23.5267 4.34537C25.3597 5.36583 26.9407 6.80009 28.1281 8.55479L27.2777 9.11791L26.9974 9.30458C25.5108 7.1112 23.3377 5.45917 20.8087 4.60671C18.2796 3.75113 15.5364 3.74491 13.0042 4.58182C11.2059 5.17605 9.58391 6.17474 8.25798 7.48454L8.97606 8.19389C6.92575 10.2193 5.75414 12.954 5.7069 15.8163C5.65966 18.6817 6.74308 21.4506 8.72725 23.5382L8.17609 24.0484C9.42329 25.3645 10.9634 26.3818 12.6767 27.0165C13.1334 27.1845 13.5995 27.3245 14.0688 27.4365C14.0971 27.4427 14.1255 27.4497 14.1538 27.4567C14.1822 27.4637 14.2105 27.4707 14.2388 27.477C14.4562 27.5236 14.6735 27.5672 14.8908 27.6045C14.9155 27.6106 14.9415 27.614 14.9671 27.6174C14.9807 27.6192 14.9942 27.621 15.0073 27.6232C15.1994 27.6512 15.3916 27.6761 15.5868 27.6978C15.6403 27.701 15.6938 27.7072 15.7473 27.7134C15.9646 27.7352 16.1852 27.7476 16.4057 27.757C16.4561 27.7601 16.5065 27.7601 16.5569 27.7601C16.749 27.7632 16.9443 27.7632 17.1364 27.7601H17.2718C17.4923 27.7538 17.7127 27.7383 17.9332 27.7196C17.9899 27.7165 18.0466 27.7103 18.1033 27.7041C18.3111 27.6823 18.519 27.6543 18.7269 27.6232L18.793 27.6138C19.0135 27.5796 19.2339 27.5361 19.4544 27.4863L19.6245 27.449C19.8418 27.3961 20.0591 27.3401 20.2733 27.2778C20.3047 27.2685 20.3331 27.2592 20.3614 27.2498C20.5536 27.1907 20.7457 27.1285 20.9346 27.0601C20.9882 27.0383 21.0417 27.0196 21.0953 27.0009C21.3031 26.9232 21.5079 26.8423 21.7094 26.752L21.8322 26.696C22.0055 26.6183 22.1787 26.5343 22.3488 26.4472C22.3724 26.4347 22.396 26.423 22.4196 26.4114C22.4432 26.3997 22.4669 26.388 22.4905 26.3756C22.6826 26.2729 22.8747 26.164 23.0637 26.052L23.196 25.968C23.3597 25.8654 23.5235 25.7596 23.6841 25.6476C23.7188 25.6258 23.7534 25.604 23.7881 25.5791C23.9707 25.4516 24.1471 25.3178 24.3203 25.1809C24.3424 25.1622 24.3644 25.1443 24.3865 25.1265C24.4085 25.1086 24.4306 25.0907 24.4526 25.072C24.6195 24.9351 24.7865 24.7951 24.9439 24.652C24.9565 24.6427 24.9691 24.6333 24.9786 24.624C25.1424 24.4747 25.303 24.316 25.4573 24.1573C25.4778 24.1371 25.4975 24.1161 25.5171 24.0951C25.5368 24.0741 25.5565 24.0531 25.577 24.0329C25.7282 23.8742 25.8762 23.7093 26.0179 23.5413C26.04 23.5164 26.062 23.4884 26.084 23.4604C26.21 23.308 26.3329 23.1524 26.4494 22.9969C26.4651 22.9751 26.4817 22.9533 26.4982 22.9315C26.5147 22.9097 26.5313 22.888 26.547 22.8662C26.6761 22.6889 26.799 22.5084 26.9187 22.3248C26.9393 22.2955 26.9582 22.2644 26.9767 22.2342C26.9836 22.2228 26.9905 22.2115 26.9974 22.2004C27.0982 22.0386 27.1958 21.8768 27.2872 21.7119C27.3092 21.6684 27.3344 21.6249 27.3595 21.5813C27.5958 21.1458 27.81 20.6946 27.9895 20.231L28.6225 20.4737Z" fill="white"/>
<path d="M21.46 7.17965L22.0435 6.07518L22.0467 6.08763C23.7251 6.95565 25.1557 8.23123 26.2067 9.79304L24.0482 11.2211C23.8223 10.8819 23.5714 10.5646 23.3016 10.2659C23.2859 10.2488 23.2694 10.2309 23.2529 10.213L23.2385 10.1974C23.2269 10.1848 23.2154 10.1723 23.2043 10.1602C23.1259 10.0762 23.0443 9.98904 22.9627 9.90815L22.9533 9.89882C22.7745 9.72148 22.5863 9.55348 22.3949 9.39481C22.3792 9.38236 22.3635 9.36914 22.3478 9.35592C22.3321 9.3427 22.3165 9.32947 22.3008 9.31703C22.2098 9.24236 22.1188 9.1708 22.0247 9.10236C22.0075 9.08996 21.9911 9.07833 21.9747 9.06671L21.9743 9.06644C21.9579 9.05484 21.9415 9.04317 21.9243 9.0308C21.6231 8.81613 21.3094 8.61701 20.9831 8.43968L20.8608 8.37434C20.7572 8.31834 20.6537 8.26545 20.547 8.21567C20.5392 8.21256 20.5306 8.20867 20.5219 8.20478C20.5133 8.20089 20.5047 8.197 20.4968 8.19389C20.2804 8.09434 20.0608 8.001 19.838 7.92011C19.8004 7.90455 19.7596 7.889 19.7219 7.87655C19.6153 7.83922 19.5023 7.80189 19.3925 7.76766C19.3518 7.75523 19.3079 7.7428 19.2641 7.73037C19.0194 7.65882 18.7682 7.59344 18.5141 7.54366C17.758 7.39432 16.9831 7.34454 16.2145 7.39743L16.2239 7.55299L16.2616 8.08189C14.9063 8.17523 13.5949 8.60768 12.4561 9.34192C12.1392 9.54414 11.838 9.77126 11.5557 10.017L12.1047 10.6424C11.4427 11.2117 10.8937 11.8962 10.4827 12.6647L9.61057 12.2042V12.2011L9.37528 12.0766C9.2843 12.2384 9.20273 12.4033 9.1243 12.5744C8.6443 13.6322 8.39332 14.7803 8.38391 15.9407L7.08509 15.9314C7.0945 14.5905 7.38626 13.2682 7.94156 12.0455C8.03881 11.8309 8.14861 11.6193 8.26156 11.4108L7.98234 11.2615C8.78861 9.78682 9.95881 8.53923 11.38 7.63077C12.1047 7.16721 12.8859 6.8032 13.6984 6.53875L13.5039 5.94451C14.5706 5.59917 15.6874 5.42184 16.8106 5.42184V6.66942C17.4286 6.66942 18.0467 6.72853 18.6521 6.84987L18.7745 6.23696C19.7188 6.42363 20.6223 6.74409 21.46 7.17965Z" fill="white"/>
<path d="M11.2734 18.9274C10.5863 17.6488 10.3698 16.1709 10.6616 14.7522L10.6679 14.7554L11.2859 14.8798C11.3926 14.3665 11.5714 13.8718 11.8161 13.4051L11.5369 13.2589C12.0106 12.3566 12.7134 11.5944 13.573 11.0406C13.6734 10.9753 13.7769 10.9162 13.8804 10.8571L13.5698 10.3157C14.9973 9.51303 16.6788 9.27036 18.2789 9.63125C19.882 9.99526 21.2875 10.9348 22.2255 12.2726L21.711 12.6273V12.6304L20.7259 13.3087C20.2585 12.6429 19.6279 12.1077 18.8906 11.7531C18.1565 11.3984 17.3377 11.2397 16.522 11.2895C15.7063 11.3393 14.9157 11.5975 14.2287 12.0393C13.7267 12.3629 13.2938 12.7767 12.9487 13.2558C12.9236 13.2869 12.9016 13.3211 12.8796 13.3553C12.7887 13.486 12.7071 13.6198 12.6318 13.7567C12.2239 14.5065 12.02 15.3558 12.0608 16.2176C12.0922 16.899 12.271 17.5585 12.5816 18.1559C12.6412 18.271 12.7071 18.3861 12.7761 18.495C12.7766 18.4959 12.7771 18.4968 12.7777 18.4976C12.7787 18.499 12.7797 18.5001 12.7807 18.5013C12.7832 18.5042 12.7855 18.5068 12.7855 18.5105C12.8545 18.6194 12.9267 18.7252 13.0051 18.8279C13.0114 18.831 13.0145 18.8372 13.0177 18.8434C13.0961 18.9461 13.1777 19.0457 13.2655 19.1421C13.2671 19.1452 13.2694 19.1476 13.2718 19.1499C13.2726 19.1507 13.2735 19.1516 13.2743 19.1525C13.2758 19.154 13.2771 19.1557 13.2781 19.1577C13.3659 19.2541 13.46 19.3443 13.5541 19.4345L13.5667 19.447C13.6608 19.5372 13.7612 19.6181 13.8616 19.699C13.8647 19.7006 13.8671 19.7029 13.8694 19.7052C13.8718 19.7076 13.8741 19.7099 13.8773 19.7115C13.9777 19.7892 14.0812 19.8639 14.1879 19.9324C14.192 19.9351 14.1955 19.9378 14.1987 19.9403C14.1999 19.9412 14.201 19.942 14.2021 19.9429C14.2027 19.9433 14.2033 19.9438 14.2039 19.9442C14.2059 19.9457 14.2079 19.9469 14.2098 19.9479C14.3165 20.0164 14.4232 20.0786 14.533 20.1377C14.5424 20.1408 14.5518 20.147 14.5612 20.1532C14.6679 20.2124 14.7777 20.2621 14.8875 20.3119C14.8903 20.3133 14.8933 20.3147 14.8963 20.3161C14.8985 20.3171 14.9007 20.3181 14.9029 20.3191C14.9046 20.3198 14.9062 20.3205 14.9079 20.3212C14.9094 20.3219 14.9109 20.3226 14.9124 20.3232C14.915 20.3244 14.9176 20.3256 14.9201 20.3267C14.9229 20.328 14.9257 20.3293 14.9283 20.3306C15.2985 20.4893 15.6875 20.6013 16.0922 20.6635C16.6349 20.7444 17.1839 20.735 17.7141 20.6324H17.7204C18.2506 20.5297 18.7651 20.3399 19.2357 20.063C19.3675 19.9852 19.4992 19.9012 19.6247 19.811C20.3243 19.3008 20.8702 18.6132 21.2059 17.8199L22.5988 18.3985C22.1565 19.4439 21.4349 20.3524 20.5126 21.0213C19.5871 21.6902 18.4985 22.0977 17.3596 22.1973L17.3032 21.5751C16.8545 21.6124 16.4028 21.6031 15.951 21.5346C15.5087 21.4662 15.0788 21.3448 14.6679 21.1768L14.4294 21.7555C13.0773 21.2079 11.9604 20.2061 11.2734 18.9274Z" fill="white"/>
<path d="M21.1557 24.6271C23.2859 23.5724 24.9487 21.7804 25.8365 19.5901L23.6091 18.7034C22.9408 20.3524 21.6891 21.7026 20.0828 22.496C18.4797 23.2893 16.6381 23.4729 14.9063 23.0124L14.4985 24.5182C13.8585 24.3471 13.2342 24.1044 12.6444 23.7964C12.5157 23.728 12.3902 23.6564 12.2648 23.5818L13.0114 22.3342C13.0114 22.3342 12.9926 22.3217 12.9832 22.3186L13.0742 22.1693C11.86 21.4475 10.8875 20.3897 10.2726 19.1266C9.65769 17.8634 9.42867 16.4478 9.61377 15.0571L9.03024 14.9794C8.92671 15.7634 8.94554 16.5505 9.08044 17.3221L7.53063 17.5865C7.6373 18.1932 7.80357 18.7874 8.02632 19.3568L7.14475 19.6928C8.07024 22.0759 9.85848 24.0298 12.1612 25.1747L12.5848 24.3378C13.1526 24.6209 13.7487 24.848 14.3604 25.0098L14.2789 25.3116C16.5785 25.9245 19.0224 25.6818 21.1526 24.6271H21.1557Z" fill="white"/>
<path d="M19.3878 15.9999C19.3878 17.4727 18.1939 18.6666 16.7211 18.6666C15.2483 18.6666 14.0544 17.4727 14.0544 15.9999C14.0544 14.5272 15.2483 13.3333 16.7211 13.3333C18.1939 13.3333 19.3878 14.5272 19.3878 15.9999ZM15.5955 15.9999C15.5955 16.6216 16.0995 17.1255 16.7211 17.1255C17.3428 17.1255 17.8467 16.6216 17.8467 15.9999C17.8467 15.3783 17.3428 14.8743 16.7211 14.8743C16.0995 14.8743 15.5955 15.3783 15.5955 15.9999Z" fill="#34C477"/>
</svg>
