<svg width="660" height="196" viewBox="0 0 660 196" fill="none" xmlns="http://www.w3.org/2000/svg">
<path d="M218.532 80.6233V106.574C218.532 108.762 219.285 110.633 220.79 112.188C222.324 113.742 224.15 114.519 226.268 114.519H259.137V124.537H226.268C221.473 124.537 217.375 122.781 213.974 119.269C210.573 115.757 208.872 111.525 208.872 106.574V80.6233C208.872 75.6721 210.573 71.4405 213.974 67.9285C217.375 64.3878 221.473 62.6175 226.268 62.6175H259.137V72.6351H226.268C224.15 72.6351 222.324 73.4267 220.79 75.01C219.285 76.5645 218.532 78.4356 218.532 80.6233Z" fill="currentColor"/>
<path d="M325.897 62.6175H338.191L314.648 93.5772L299.761 113.094L291.063 124.537H278.769L302.312 93.5772L278.769 62.6175H291.063L308.501 85.5026L325.897 62.6175Z" fill="currentColor"/>
<path d="M367.771 124.537H358.111V88.5684H400.639C402.758 88.5684 404.57 87.7911 406.075 86.2367C407.609 84.6822 408.375 82.8111 408.375 80.6233C408.375 78.4356 407.609 76.5645 406.075 75.01C404.57 73.4267 402.758 72.6351 400.639 72.6351H358.111V63.222C359.589 62.819 361.066 62.6175 362.544 62.6175H400.639C405.434 62.6175 409.532 64.3878 412.933 67.9285C416.335 71.4405 418.035 75.6721 418.035 80.6233C418.035 85.5746 416.335 89.8062 412.933 93.3181C409.532 96.8301 405.434 98.586 400.639 98.586H367.771V124.537Z" fill="currentColor"/>
<path d="M448.065 62.6175V88.5684H488.628V62.6175H498.329V124.537H488.628V98.586H448.065V124.537H438.364V62.6175H448.065Z" fill="currentColor"/>
<path d="M528.689 114.562H578.953V124.537H518.987V106.574C518.987 101.623 520.688 97.3914 524.089 93.8794C527.49 90.3387 531.588 88.5684 536.383 88.5684H578.953V98.586H536.383C534.265 98.586 532.453 99.3776 530.947 100.961C529.442 102.515 528.689 104.386 528.689 106.574V114.562ZM518.987 72.6351V62.6175H578.953V72.6351H518.987Z" fill="currentColor"/>
<path d="M642.562 98.586H638.422L660 120.867V124.537H649.88L624.706 98.586H609.694V124.537H600.034V88.5684H642.562C644.681 88.5684 646.493 87.7911 647.999 86.2367C649.532 84.6822 650.298 82.8111 650.298 80.6233C650.298 78.4356 649.532 76.5645 647.999 75.01C646.493 73.4267 644.681 72.6351 642.562 72.6351H600.034V63.222C601.512 62.819 602.989 62.6175 604.467 62.6175H642.562C647.357 62.6175 651.455 64.3878 654.857 67.9285C658.285 71.4405 660 75.6721 660 80.6233C660 85.5746 658.285 89.8062 654.857 93.3181C651.455 96.8301 647.357 98.586 642.562 98.586Z" fill="currentColor"/>
<path d="M172.835 127.68C171.603 130.796 170.182 133.81 168.615 136.741L168.677 136.72L177.913 141.57C167.988 160.023 152.087 174.615 132.739 183.016C113.391 191.417 91.7443 193.15 71.2887 187.908L73.9214 177.877C71.0798 177.134 68.259 176.308 65.501 175.276C53.4658 170.818 42.6843 163.676 33.9295 154.471C32.843 153.335 31.7983 152.138 30.7745 150.941L30.4611 150.57C29.688 149.641 28.9149 148.671 28.1627 147.701L19.8049 153.934C8.58466 139.259 2.04472 121.611 1 103.242L11.4263 102.664C11.3845 102.292 11.3845 101.9 11.3845 101.528C11.3845 101.291 11.3741 101.054 11.3636 100.816C11.3532 100.579 11.3427 100.342 11.3427 100.104V96.3477C11.3636 95.2744 11.4054 94.2217 11.4681 93.1691C11.489 92.9833 11.489 92.7975 11.489 92.6118C11.5726 91.3734 11.677 90.1556 11.8233 88.9172C11.8442 88.7314 11.8703 88.5508 11.8964 88.3702C11.9225 88.1896 11.9487 88.009 11.9696 87.8232C12.074 86.9564 12.1785 86.1101 12.3248 85.2432C12.3874 84.7892 12.471 84.3351 12.5546 83.8811C12.5972 83.6526 12.638 83.4258 12.6786 83.2003C12.7774 82.6517 12.8749 82.1105 12.9934 81.5693C13.0642 81.1668 13.1501 80.7791 13.2383 80.3812C13.2541 80.3098 13.27 80.238 13.2859 80.1657C13.4531 79.402 13.6411 78.6383 13.8292 77.8746C13.8918 77.5857 13.9545 77.3174 14.0172 77.049L3.90432 74.4277C6.51612 64.603 10.7368 55.2529 16.4201 46.7698L25.1539 52.4665L25.5927 51.7854C25.6031 51.7647 25.6188 51.7441 25.6345 51.7235C25.6501 51.7028 25.6658 51.6822 25.6763 51.6615C26.3449 50.6708 27.0344 49.7214 27.7448 48.7719C27.8388 48.6481 27.9381 48.5242 28.0373 48.4004C28.1366 48.2765 28.2358 48.1527 28.3299 48.0289C28.894 47.2858 29.479 46.5634 30.0641 45.841C30.3357 45.5107 30.6282 45.1599 30.9208 44.8296C31.1111 44.6127 31.2988 44.3958 31.4858 44.1798C31.8325 43.7791 32.1767 43.3815 32.5296 42.9926C32.6863 42.8172 32.8483 42.6469 33.0102 42.4766C33.1721 42.3064 33.3341 42.1361 33.4908 41.9606C34.0338 41.383 34.5976 40.8053 35.1615 40.2277C35.3495 40.0213 35.5384 39.814 35.7474 39.6283C41.8276 33.6426 48.7855 28.5857 56.4328 24.6847L53.5494 19.1738C59.0655 16.3667 64.8323 14.1582 70.7455 12.5276L69.6171 8.52343C93.6457 1.91855 119.346 5.01458 141.097 17.0685L139.028 20.6805C151.189 27.4505 161.678 36.9657 169.555 48.6068L163.913 52.3427L162.054 53.5811C152.192 39.0297 137.775 28.0697 120.996 22.4143C104.218 16.7382 86.0192 16.697 69.2202 22.2492C57.2895 26.1915 46.5289 32.817 37.7323 41.5065L42.4962 46.2125C28.894 59.6493 21.1213 77.7921 20.8079 96.7811C20.4945 115.791 27.6821 134.161 40.8456 148.01L37.1891 151.395C45.4632 160.126 55.6806 166.875 67.0471 171.086C70.0768 172.201 73.1692 173.129 76.2825 173.872C76.4705 173.914 76.6586 173.96 76.8466 174.007C77.0347 174.053 77.2227 174.099 77.4108 174.141C78.8525 174.45 80.2942 174.739 81.7359 174.987C81.8997 175.027 82.0723 175.05 82.2422 175.073C82.3325 175.085 82.422 175.097 82.509 175.111C83.7835 175.297 85.0581 175.462 86.3536 175.606C86.7085 175.627 87.0635 175.668 87.4184 175.709C88.8601 175.854 90.3235 175.936 91.7861 175.998C92.1204 176.019 92.4547 176.019 92.789 176.019C94.0636 176.04 95.359 176.04 96.6336 176.019H97.5321C98.9947 175.978 100.457 175.875 101.92 175.751C102.296 175.73 102.672 175.689 103.048 175.647C104.427 175.503 105.806 175.317 107.185 175.111L107.624 175.049C109.087 174.822 110.549 174.533 112.012 174.203L113.14 173.955C114.582 173.604 116.024 173.233 117.444 172.82C117.653 172.758 117.841 172.696 118.029 172.634C119.304 172.242 120.579 171.829 121.832 171.375C122.187 171.23 122.543 171.107 122.898 170.983C124.277 170.467 125.635 169.93 126.972 169.332L127.787 168.96C128.936 168.444 130.085 167.887 131.214 167.309C131.371 167.226 131.527 167.149 131.684 167.071C131.841 166.994 131.997 166.917 132.154 166.834C133.429 166.153 134.703 165.431 135.957 164.688L136.834 164.13C137.921 163.449 139.007 162.747 140.073 162.004C140.303 161.86 140.533 161.715 140.763 161.55C141.974 160.704 143.144 159.816 144.294 158.908C144.44 158.784 144.586 158.666 144.732 158.547C144.879 158.428 145.025 158.31 145.171 158.186C146.279 157.278 147.386 156.349 148.431 155.399C148.514 155.338 148.598 155.276 148.661 155.214C149.747 154.223 150.813 153.17 151.837 152.118C151.972 151.983 152.103 151.844 152.234 151.705C152.364 151.565 152.495 151.426 152.631 151.292C153.633 150.239 154.616 149.145 155.556 148.031C155.702 147.866 155.848 147.68 155.995 147.494C156.83 146.483 157.645 145.451 158.418 144.419C158.523 144.274 158.632 144.13 158.742 143.985C158.852 143.841 158.962 143.696 159.066 143.552C159.923 142.375 160.738 141.178 161.532 139.96C161.668 139.766 161.794 139.56 161.916 139.359C161.962 139.283 162.008 139.208 162.054 139.135C162.723 138.062 163.37 136.988 163.976 135.894C164.122 135.606 164.289 135.317 164.456 135.028C166.024 132.138 167.445 129.145 168.636 126.07L172.835 127.68Z" fill="currentColor"/>
<path d="M125.317 39.4838L129.189 32.1565L129.21 32.2391C140.345 37.9977 149.835 46.4602 156.808 56.8216L142.488 66.2955C140.99 64.0457 139.325 61.9404 137.535 59.9589C137.431 59.8454 137.322 59.7267 137.212 59.608L137.116 59.504C137.039 59.4203 136.963 59.3375 136.89 59.2572C136.369 58.6999 135.828 58.1219 135.287 57.5853L135.225 57.5234C134.038 56.3469 132.789 55.2323 131.52 54.1797C131.416 54.0971 131.312 54.0094 131.208 53.9217C131.104 53.8339 130.999 53.7462 130.895 53.6637C130.292 53.1683 129.688 52.6936 129.064 52.2395C128.95 52.1572 128.841 52.0801 128.732 52.003L128.73 52.0012C128.621 51.9243 128.512 51.8468 128.398 51.7648C126.4 50.3406 124.318 49.0196 122.154 47.8431L121.342 47.4097C120.655 47.0381 119.968 46.6872 119.261 46.357C119.209 46.3364 119.152 46.3106 119.094 46.2848C119.037 46.259 118.98 46.2332 118.928 46.2125C117.492 45.552 116.035 44.9328 114.557 44.3962C114.307 44.293 114.037 44.1898 113.787 44.1072C113.079 43.8595 112.33 43.6119 111.602 43.3848C111.331 43.3023 111.04 43.2199 110.749 43.1374C109.126 42.6627 107.46 42.229 105.774 41.8987C100.758 40.908 95.6169 40.5777 90.5177 40.9286L90.5801 41.9606L90.8299 45.4695C81.8385 46.0887 73.1386 48.9577 65.5834 53.8288C63.4812 55.1704 61.4832 56.6771 59.61 58.3077L63.2523 62.4564C58.8607 66.2336 55.2184 70.7744 52.4918 75.8726L46.7057 72.8178V72.7972L45.1447 71.9715C44.5412 73.0448 44 74.1388 43.4797 75.274C40.2953 82.2917 38.6302 89.9079 38.5678 97.6067L29.9511 97.5448C30.0135 88.6489 31.9491 79.8768 35.6331 71.7651C36.2783 70.341 37.0068 68.9374 37.756 67.5545L35.9037 66.5638C41.2527 56.7803 49.016 48.5036 58.4444 42.4766C63.2523 39.4012 68.4348 36.9863 73.8254 35.2319L72.535 31.2896C79.6115 28.9986 87.021 27.8221 94.4722 27.8221V36.0988C98.5724 36.0988 102.673 36.491 106.69 37.2959L107.501 33.2298C113.766 34.4682 119.76 36.5942 125.317 39.4838Z" fill="currentColor"/>
<path d="M57.737 117.421C53.1789 108.938 51.7428 99.1341 53.6785 89.7221L53.7201 89.7428L57.8203 90.5684C58.5279 87.1628 59.7143 83.8809 61.3377 80.7849L59.4854 79.8148C62.6282 73.8291 67.2903 68.7723 72.9932 65.0983C73.6592 64.6649 74.346 64.2727 75.0329 63.8806L72.9723 60.2892C82.4424 54.964 93.5983 53.354 104.213 55.7483C114.849 58.1632 124.173 64.3966 130.396 73.2719L126.983 75.6248V75.6455L120.447 80.1451C117.346 75.7281 113.163 72.1779 108.272 69.8249C103.401 67.472 97.9691 66.4193 92.5576 66.7495C87.1462 67.0798 81.9012 68.7929 77.3431 71.7238C74.013 73.8704 71.1408 76.6156 68.8513 79.7942C68.6848 80.0006 68.5391 80.2276 68.3934 80.4547C67.7899 81.3216 67.2487 82.2091 66.7492 83.1173C64.0435 88.0916 62.6906 93.7263 62.9612 99.4437C63.1693 103.964 64.3557 108.34 66.4162 112.303C66.8116 113.066 67.2487 113.83 67.7066 114.552C67.7098 114.559 67.7134 114.564 67.7174 114.57C67.7236 114.579 67.7305 114.587 67.7371 114.594C67.7538 114.613 67.769 114.631 67.769 114.656C68.2269 115.378 68.7056 116.08 69.226 116.761C69.2676 116.782 69.2884 116.823 69.3092 116.864C69.8295 117.545 70.3707 118.206 70.9535 118.846C70.9639 118.866 70.9795 118.882 70.9951 118.897C71.0008 118.903 71.0065 118.908 71.0119 118.914C71.0214 118.925 71.0301 118.936 71.0367 118.949C71.6194 119.589 72.2438 120.187 72.8681 120.786L72.9515 120.868C73.5759 121.467 74.242 122.003 74.908 122.54C74.9288 122.55 74.9444 122.566 74.96 122.581C74.9756 122.597 74.9912 122.612 75.0121 122.623C75.6781 123.139 76.3649 123.634 77.0726 124.088C77.0999 124.106 77.1233 124.124 77.1444 124.141C77.1522 124.147 77.1596 124.152 77.1668 124.158C77.1709 124.161 77.1749 124.164 77.1789 124.167C77.1924 124.177 77.2053 124.185 77.2183 124.191C77.9259 124.645 78.6336 125.058 79.362 125.45C79.4245 125.471 79.4869 125.512 79.5493 125.554C80.257 125.946 80.9855 126.276 81.7139 126.606C81.7326 126.616 81.7523 126.625 81.7726 126.634C81.787 126.641 81.8016 126.647 81.8164 126.654C81.8273 126.659 81.8383 126.663 81.8492 126.668C81.8592 126.673 81.8691 126.677 81.879 126.681C81.8964 126.689 81.9137 126.697 81.9306 126.704C81.9492 126.713 81.9673 126.722 81.9845 126.73C84.4405 127.783 87.0213 128.526 89.7062 128.939C93.3069 129.475 96.9492 129.413 100.467 128.732H100.508C104.026 128.051 107.439 126.792 110.561 124.955C111.435 124.439 112.309 123.882 113.142 123.283C117.783 119.898 121.405 115.337 123.632 110.073L132.873 113.913C129.938 120.848 125.151 126.875 119.032 131.312C112.892 135.75 105.67 138.454 98.1148 139.114L97.7401 134.986C94.7638 135.234 91.7667 135.172 88.7696 134.718C85.8349 134.264 82.9835 133.459 80.257 132.344L78.6752 136.183C69.7047 132.551 62.2951 125.904 57.737 117.421Z" fill="currentColor"/>
<path d="M123.299 155.234C137.431 148.237 148.462 136.348 154.352 121.818L139.575 115.935C135.142 126.875 126.837 135.832 116.181 141.096C105.545 146.359 93.3279 147.577 81.8389 144.522L79.1332 154.512C74.8873 153.377 70.7455 151.767 66.8326 149.723C65.9792 149.269 65.1467 148.794 64.3142 148.299L69.2677 140.022C69.2677 140.022 69.1428 139.94 69.0804 139.919L69.684 138.928C61.6292 134.14 55.1771 127.122 51.0977 118.742C47.0183 110.362 45.499 100.971 46.7269 91.7448L42.8557 91.2288C42.1688 96.4302 42.2937 101.652 43.1887 106.771L32.9069 108.525C33.6146 112.55 34.7177 116.492 36.1954 120.27L30.3469 122.499C36.4868 138.309 48.3504 151.271 63.6273 158.867L66.4371 153.315C70.2043 155.193 74.1588 156.7 78.2174 157.773L77.6763 159.775C92.9324 163.841 109.146 162.231 123.278 155.234H123.299Z" fill="currentColor"/>
<path d="M111.57 98C111.57 107.771 103.65 115.691 93.8792 115.691C84.1086 115.691 76.1879 107.771 76.1879 98C76.1879 88.2294 84.1086 80.3087 93.8792 80.3087C103.65 80.3087 111.57 88.2294 111.57 98ZM86.4117 98C86.4117 102.124 89.755 105.467 93.8792 105.467C98.0034 105.467 101.347 102.124 101.347 98C101.347 93.8758 98.0034 90.5325 93.8792 90.5325C89.755 90.5325 86.4117 93.8758 86.4117 98Z" fill="#55F89F"/>
</svg>
